<svg width="193" height="136" viewBox="0 0 193 136" fill="none" xmlns="http://www.w3.org/2000/svg">
<path d="M193 97C193 97 149.795 97 96.5 97C43.2045 97 0 97 0 97C0 43.7045 43.2045 1 96.5 1C149.795 1 193 43.7045 193 97Z" fill="#D9D9D9"/>
<path d="M161 26C141.8 6 109.5 1 95.5 1V26.5C117 26 136.667 38 142.5 44L161 26Z" fill="#FF8800" stroke="#FF8800"/>
<path d="M166 97C166 97 134.884 97 96.5 97C58.1162 97 27 97 27 97C27 58.3401 58.1162 27 96.5 27C134.884 27 166 58.3401 166 97Z" fill="white"/>
<path d="M150 97C150 97 126.047 97 96.5 97C66.9528 97 43 97 43 97C43 67.1766 66.9528 43 96.5 43C126.047 43 150 67.1766 150 97Z" fill="#E6CEFE"/>
<path d="M131 97C131 97 115.554 97 96.5 97C77.4462 97 62 97 62 97C62 77.67 77.4462 62 96.5 62C115.554 62 131 77.67 131 97Z" fill="#AB7BDC"/>
<rect y="97" width="193" height="25" fill="#640D5F"/>
<path d="M81.0114 116V104.364H85.6705C86.5265 104.364 87.2405 104.491 87.8125 104.744C88.3845 104.998 88.8144 105.35 89.1023 105.801C89.3902 106.248 89.5341 106.763 89.5341 107.347C89.5341 107.801 89.4432 108.201 89.2614 108.545C89.0795 108.886 88.8295 109.167 88.5114 109.386C88.197 109.602 87.8371 109.756 87.4318 109.847V109.96C87.875 109.979 88.2898 110.104 88.6761 110.335C89.0663 110.566 89.3826 110.89 89.625 111.307C89.8674 111.72 89.9886 112.212 89.9886 112.784C89.9886 113.402 89.8352 113.953 89.5284 114.438C89.2254 114.919 88.7765 115.299 88.1818 115.58C87.5871 115.86 86.8542 116 85.983 116H81.0114ZM83.4716 113.989H85.4773C86.1629 113.989 86.6629 113.858 86.9773 113.597C87.2917 113.331 87.4489 112.979 87.4489 112.54C87.4489 112.218 87.3712 111.934 87.2159 111.688C87.0606 111.441 86.839 111.248 86.5511 111.108C86.267 110.968 85.928 110.898 85.5341 110.898H83.4716V113.989ZM83.4716 109.233H85.2955C85.6326 109.233 85.9318 109.174 86.1932 109.057C86.4583 108.936 86.6667 108.765 86.8182 108.545C86.9735 108.326 87.0511 108.062 87.0511 107.756C87.0511 107.335 86.9015 106.996 86.6023 106.739C86.3068 106.481 85.8864 106.352 85.3409 106.352H83.4716V109.233ZM91.5895 104.364H94.6236L97.8281 112.182H97.9645L101.169 104.364H104.203V116H101.817V108.426H101.72L98.7088 115.943H97.0838L94.0724 108.398H93.9759V116H91.5895V104.364ZM108.69 104.364V116H106.23V104.364H108.69Z" fill="white"/>
<circle cx="96.5" cy="90.5" r="1.5" fill="#090303"/>
<path d="M49.5 45C30.3 63 26.4705 86.8333 26.9705 96.5H0.5C0.5 59.7 22 33.8333 32.5 25.5L49.5 45Z" fill="#019FE8" stroke="#019FE8"/>
<path d="M95.5 26.5C71.1 26.9 56.5 38.5 50 44.5L32.5 25.5C53.7 6.3 83.5 1 95.5 1V26.5Z" fill="#5CCB00" stroke="#5CCB00"/>
<path d="M192.5 96.5C192 57.5 171.5 35.5 161.5 26.5L143 44.5C161.8 61.7 166 86.1667 166 96.5H192.5Z" fill="#FF0303" stroke="#FF0303"/>
<path d="M15.0681 57.3013L15.8447 56.8033L17.3745 59.1887C17.5463 59.4565 17.6326 59.7319 17.6335 60.0148C17.6355 60.297 17.5584 60.5675 17.4021 60.8263C17.2451 61.084 17.0147 61.3102 16.711 61.505C16.4061 61.7005 16.1038 61.8159 15.8041 61.8512C15.5036 61.8852 15.2256 61.8425 14.9701 61.7229C14.7145 61.6033 14.5008 61.4096 14.3291 61.1417L12.7993 58.7563L13.5759 58.2583L15.0631 60.5773C15.1528 60.7172 15.2631 60.822 15.3938 60.8917C15.5258 60.9607 15.6679 60.9902 15.8202 60.9803C15.9724 60.9704 16.1233 60.9175 16.2728 60.8216C16.4234 60.725 16.5344 60.61 16.6057 60.4765C16.6782 60.3422 16.7101 60.2011 16.7013 60.0532C16.6937 59.9045 16.645 59.7602 16.5553 59.6203L15.0681 57.3013ZM18.5676 57.9932L19.589 59.5859L18.8249 60.0759L17.0582 57.321L17.7864 56.854L18.0981 57.34L18.1304 57.3193C18.0886 57.12 18.1096 56.9277 18.1932 56.7424C18.2761 56.5559 18.4198 56.3971 18.6243 56.266C18.8156 56.1433 19.0092 56.0782 19.2052 56.0707C19.4012 56.0631 19.5884 56.1117 19.767 56.2166C19.9449 56.3202 20.1024 56.479 20.2397 56.6931L21.3646 58.4471L20.6006 58.9371L19.5631 57.3194C19.4561 57.15 19.3287 57.0461 19.1809 57.0076C19.0322 56.9679 18.8814 56.9972 18.7284 57.0953C18.6255 57.1613 18.5488 57.2417 18.4983 57.3365C18.4489 57.4306 18.4294 57.5343 18.4396 57.6475C18.4502 57.7588 18.4929 57.8741 18.5676 57.9932ZM23.0107 57.4548C22.8014 57.589 22.5774 57.6567 22.3386 57.658C22.1002 57.6573 21.864 57.5835 21.6298 57.4367C21.396 57.288 21.1806 57.06 20.9835 56.7527C20.781 56.437 20.6635 56.142 20.631 55.8675C20.5977 55.5919 20.6319 55.348 20.7338 55.1359C20.8361 54.9218 20.9883 54.7499 21.1904 54.6203C21.3446 54.5214 21.49 54.4653 21.6266 54.452C21.7636 54.4367 21.8887 54.4475 22.0019 54.4846C22.1156 54.5197 22.2129 54.5636 22.2939 54.6163L22.3172 54.6013L21.4316 53.2203L22.1938 52.7315L24.5495 56.4046L23.7962 56.8877L23.5132 56.4465L23.481 56.4672C23.4942 56.5668 23.492 56.6753 23.4746 56.7928C23.4576 56.9083 23.4128 57.024 23.3402 57.1397C23.2688 57.2547 23.159 57.3597 23.0107 57.4548ZM22.8629 56.6915C22.986 56.6125 23.0686 56.5123 23.1106 56.3909C23.1529 56.2675 23.1577 56.1303 23.125 55.9792C23.0934 55.8273 23.0251 55.6695 22.92 55.5057C22.8149 55.3419 22.701 55.2142 22.5781 55.1225C22.4552 55.0309 22.3296 54.9798 22.2014 54.9693C22.0731 54.9587 21.9474 54.9929 21.8242 55.0719C21.6987 55.1524 21.6147 55.2544 21.5723 55.3777C21.53 55.5011 21.5254 55.6374 21.5586 55.7865C21.5918 55.9356 21.6594 56.0897 21.7614 56.2487C21.8641 56.409 21.9771 56.5365 22.1003 56.6312C22.224 56.7241 22.3505 56.7779 22.4799 56.7928C22.6097 56.8058 22.7373 56.772 22.8629 56.6915ZM26.4677 55.2504C26.1843 55.4322 25.9036 55.5312 25.6255 55.5475C25.3478 55.5619 25.0861 55.4986 24.8404 55.3575C24.5939 55.2152 24.3775 54.9988 24.1912 54.7082C24.0094 54.4248 23.9049 54.1408 23.8777 53.8563C23.8504 53.5717 23.8983 53.3056 24.0213 53.058C24.1455 52.8096 24.3427 52.5987 24.6129 52.4254C24.7947 52.3089 24.9826 52.2297 25.1769 52.1878C25.3715 52.144 25.5646 52.1425 25.7561 52.1833C25.9489 52.2234 26.1345 52.3102 26.313 52.4438C26.4907 52.5762 26.6547 52.7596 26.805 52.9939L26.9396 53.2038L24.6134 54.6956L24.3097 54.2221L25.9167 53.1915C25.8462 53.0815 25.7598 52.9994 25.6575 52.9452C25.5552 52.891 25.4463 52.8671 25.3307 52.8738C25.2156 52.8784 25.1024 52.9164 24.9912 52.9877C24.8753 53.0621 24.7897 53.1549 24.7345 53.2663C24.6798 53.3756 24.656 53.4912 24.6633 53.6131C24.6699 53.7338 24.7074 53.8489 24.776 53.9585L25.0647 54.4087C25.1521 54.545 25.2528 54.6467 25.3666 54.7137C25.4817 54.78 25.6031 54.8101 25.7309 54.8041C25.8587 54.7981 25.9865 54.7541 26.1144 54.672C26.1993 54.6176 26.2694 54.5558 26.3246 54.4866C26.3798 54.4175 26.4172 54.3429 26.4367 54.2628C26.4563 54.1828 26.457 54.0997 26.4388 54.0135L27.1754 53.6069C27.2484 53.7997 27.2699 53.9951 27.24 54.1932C27.2105 54.3893 27.1311 54.5786 27.0018 54.7611C26.8729 54.9416 26.6948 55.1047 26.4677 55.2504ZM28.1962 54.066L26.4295 51.3111L27.1702 50.836L27.4785 51.3167L27.5072 51.2983C27.4477 51.0951 27.4492 50.9119 27.5116 50.7487C27.5732 50.5843 27.6812 50.4527 27.8354 50.3537C27.8737 50.3292 27.9165 50.3051 27.9638 50.2815C28.0111 50.258 28.0541 50.2396 28.093 50.2265L28.5278 50.9045C28.485 50.9167 28.4292 50.939 28.3605 50.9712C28.2918 51.0035 28.2311 51.0365 28.1785 51.0703C28.0661 51.1423 27.9814 51.2313 27.9243 51.337C27.8677 51.4408 27.8413 51.5523 27.8451 51.6713C27.8501 51.7896 27.8886 51.905 27.9607 52.0174L28.9603 53.576L28.1962 54.066ZM18.5004 68.5998L15.0937 65.6007L15.9421 65.0566L18.1869 67.2189L18.2174 67.1993L17.2514 64.217L17.9778 63.7511L20.287 65.8797L20.3192 65.859L19.287 62.9114L20.1354 62.3674L21.44 66.7146L20.6832 67.2L18.4435 65.247L18.4148 65.2654L19.2573 68.1144L18.5004 68.5998ZM23.8864 65.2216C23.603 65.4034 23.3223 65.5024 23.0442 65.5188C22.7666 65.5331 22.5049 65.4698 22.2591 65.3287C22.0126 65.1864 21.7962 64.97 21.6099 64.6794C21.4282 64.396 21.3237 64.1121 21.2964 63.8275C21.2692 63.5429 21.317 63.2768 21.44 63.0292C21.5642 62.7808 21.7614 62.5699 22.0317 62.3966C22.2134 62.2801 22.4014 62.2009 22.5956 62.159C22.7902 62.1152 22.9833 62.1137 23.1749 62.1545C23.3676 62.1946 23.5533 62.2814 23.7317 62.415C23.9095 62.5474 24.0735 62.7308 24.2238 62.9651L24.3583 63.175L22.0321 64.6668L21.7285 64.1933L23.3355 63.1627C23.2649 63.0527 23.1785 62.9706 23.0762 62.9164C22.974 62.8622 22.8651 62.8384 22.7495 62.845C22.6344 62.8496 22.5212 62.8876 22.41 62.9589C22.294 63.0333 22.2084 63.1262 22.1533 63.2375C22.0985 63.3468 22.0748 63.4625 22.0821 63.5843C22.0886 63.705 22.1262 63.8202 22.1947 63.9297L22.4834 64.3799C22.5709 64.5162 22.6715 64.6179 22.7854 64.6849C22.9004 64.7512 23.0218 64.7813 23.1496 64.7753C23.2774 64.7693 23.4052 64.7253 23.5332 64.6432C23.6181 64.5888 23.6881 64.527 23.7433 64.4578C23.7986 64.3887 23.8359 64.3141 23.8555 64.2341C23.875 64.154 23.8757 64.0709 23.8575 63.9847L24.5941 63.5781C24.6671 63.7709 24.6887 63.9663 24.6588 64.1644C24.6293 64.3605 24.5499 64.5498 24.4205 64.7323C24.2916 64.9128 24.1136 65.0759 23.8864 65.2216ZM25.6149 64.0372L23.8482 61.2823L24.6123 60.7923L26.379 63.5472L25.6149 64.0372ZM24.0043 60.681C23.8907 60.7539 23.7691 60.7787 23.6395 60.7555C23.5103 60.7304 23.4116 60.6646 23.3433 60.5582C23.2758 60.4529 23.258 60.337 23.2898 60.2103C23.322 60.0816 23.3949 59.9808 23.5085 59.908C23.6221 59.8352 23.7435 59.8113 23.8727 59.8365C24.0023 59.8596 24.1009 59.9238 24.1683 60.0291C24.2366 60.1355 24.2546 60.253 24.2224 60.3817C24.1906 60.5084 24.1179 60.6082 24.0043 60.681ZM28.9315 63.4492C28.684 63.6079 28.4499 63.7099 28.2292 63.7553C28.0105 63.801 27.812 63.7993 27.6336 63.75C27.4552 63.7007 27.304 63.6137 27.1801 63.489L27.8258 62.9408C27.8826 62.982 27.9497 63.0115 28.027 63.0294C28.1043 63.0474 28.1904 63.0461 28.2853 63.0257C28.3822 63.0058 28.4863 62.9602 28.5975 62.8889C28.7637 62.7823 28.8745 62.6538 28.93 62.5035C28.9874 62.3536 28.9555 62.1842 28.8344 61.9953L28.5112 61.4913L28.4789 61.512C28.4945 61.61 28.4907 61.7145 28.4674 61.8256C28.4442 61.9367 28.3937 62.0475 28.3161 62.1581C28.2385 62.2686 28.1268 62.3706 27.9809 62.4642C27.774 62.5968 27.555 62.6698 27.3239 62.683C27.0932 62.6943 26.864 62.6329 26.6362 62.4988C26.4089 62.3628 26.1975 62.1423 26.002 61.8374C25.8018 61.5253 25.6855 61.2321 25.6529 60.9576C25.6204 60.6832 25.655 60.4399 25.7569 60.2278C25.86 60.0149 26.0126 59.8436 26.2146 59.714C26.3689 59.6151 26.5149 59.5586 26.6527 59.5445C26.7897 59.5292 26.9148 59.5401 27.028 59.5772C27.1416 59.6123 27.2396 59.6558 27.3218 59.7077L27.3505 59.6893L27.0537 59.2266L27.8124 58.74L29.5964 61.5218C29.7467 61.7561 29.815 61.989 29.8015 62.2205C29.7879 62.4519 29.7048 62.6723 29.5521 62.8816C29.4014 63.0913 29.1946 63.2805 28.9315 63.4492ZM27.8549 61.735C27.9781 61.656 28.0626 61.5588 28.1084 61.4434C28.1546 61.326 28.1636 61.1953 28.1354 61.0514C28.1077 60.9055 28.042 60.7518 27.9385 60.5904C27.835 60.429 27.7226 60.3037 27.6012 60.2144C27.4791 60.124 27.3539 60.0735 27.2256 60.063C27.0974 60.0524 26.9716 60.0866 26.8485 60.1656C26.7229 60.2461 26.639 60.3481 26.5966 60.4714C26.5535 60.5936 26.5481 60.7287 26.5805 60.8766C26.613 61.0245 26.6794 61.1768 26.7799 61.3335C26.8819 61.4925 26.9922 61.6158 27.1108 61.7034C27.2298 61.7891 27.3521 61.8364 27.4777 61.8453C27.6036 61.8523 27.7294 61.8155 27.8549 61.735ZM29.9298 59.0223L30.9512 60.615L30.1871 61.105L27.8315 57.4318L28.574 56.9556L29.4746 58.3599L29.5069 58.3392C29.4648 58.1367 29.4836 57.945 29.5632 57.764C29.6421 57.5818 29.7862 57.4236 29.9954 57.2894C30.1867 57.1667 30.3804 57.1016 30.5763 57.094C30.7727 57.0845 30.9602 57.1321 31.1388 57.237C31.3179 57.3398 31.4758 57.4993 31.6126 57.7153L32.7376 59.4693L31.9735 59.9593L30.936 58.3416C30.8283 58.171 30.7005 58.0665 30.5527 58.028C30.406 57.9888 30.2549 58.019 30.0995 58.1187C29.9955 58.1854 29.9176 58.2665 29.8659 58.3622C29.8153 58.457 29.7945 58.5615 29.8036 58.6755C29.813 58.7876 29.8551 58.9032 29.9298 59.0223ZM33.0374 55.3891L33.4055 55.9631L31.7465 57.027L31.3784 56.4531L33.0374 55.3891ZM31.3318 55.5515L32.0958 55.0615L33.7429 57.6299C33.7882 57.7004 33.8342 57.7485 33.881 57.7742C33.9271 57.7986 33.9742 57.8064 34.0225 57.7974C34.0719 57.7876 34.1223 57.7662 34.1737 57.7333C34.2096 57.7103 34.2435 57.6843 34.2756 57.6553C34.3069 57.6251 34.3309 57.6021 34.3477 57.5862L34.8325 58.0777C34.8019 58.1142 34.7569 58.1625 34.6976 58.2225C34.6389 58.2837 34.5612 58.3479 34.4642 58.4152C34.2847 58.5404 34.1075 58.6194 33.9328 58.6522C33.7593 58.6842 33.5963 58.6655 33.4438 58.5962C33.2914 58.5269 33.1579 58.4016 33.0433 58.2203L31.3318 55.5515Z" fill="white"/>
<path d="M127.57 17.1517C127.416 17.602 127.2 17.956 126.921 18.2137C126.644 18.4718 126.33 18.6341 125.98 18.7008C125.632 18.7665 125.276 18.7373 124.912 18.6129C124.545 18.4876 124.244 18.2919 124.009 18.0256C123.774 17.7593 123.626 17.4393 123.564 17.0656C123.503 16.6919 123.549 16.2805 123.702 15.8315C123.856 15.3812 124.071 15.027 124.348 14.7689C124.626 14.5108 124.938 14.3488 125.286 14.2831C125.635 14.216 125.993 14.245 126.36 14.3703C126.724 14.4947 127.024 14.69 127.259 14.9563C127.495 15.2216 127.644 15.5412 127.706 15.9149C127.769 16.2891 127.723 16.7014 127.57 17.1517ZM126.684 16.8495C126.784 16.5578 126.824 16.2969 126.805 16.0668C126.787 15.8371 126.718 15.6437 126.596 15.4865C126.474 15.3293 126.307 15.2147 126.096 15.1426C125.885 15.0706 125.683 15.0595 125.491 15.1093C125.298 15.1591 125.124 15.2692 124.968 15.4397C124.814 15.6106 124.687 15.842 124.587 16.1337C124.488 16.4254 124.447 16.6861 124.464 16.9157C124.483 17.1459 124.554 17.3395 124.676 17.4967C124.798 17.6539 124.964 17.7686 125.175 17.8406C125.386 17.9126 125.588 17.9238 125.781 17.8739C125.973 17.8241 126.147 17.7137 126.301 17.5428C126.457 17.3723 126.585 17.1412 126.684 16.8495ZM131.44 17.3202L129.3 20.0479L128.332 19.7175L128.307 16.2506L129.214 16.5603L129.101 18.996L129.133 19.007L130.531 17.0098L131.44 17.3202ZM132.113 21.0758C131.795 20.967 131.543 20.8089 131.357 20.6014C131.173 20.393 131.06 20.1487 131.017 19.8685C130.975 19.587 131.01 19.2829 131.121 18.9563C131.23 18.6377 131.387 18.3792 131.593 18.1808C131.799 17.9824 132.037 17.8543 132.308 17.7965C132.579 17.7391 132.867 17.7623 133.171 17.866C133.375 17.9358 133.554 18.0336 133.708 18.1596C133.863 18.2847 133.985 18.4349 134.072 18.6103C134.16 18.7861 134.208 18.9855 134.214 19.2083C134.221 19.4298 134.18 19.6723 134.09 19.9358L134.009 20.1717L131.394 19.279L131.576 18.7466L133.382 19.3634C133.425 19.2397 133.435 19.121 133.414 19.0072C133.393 18.8934 133.344 18.7933 133.267 18.7069C133.191 18.6197 133.091 18.5547 132.966 18.5121C132.836 18.4676 132.71 18.4583 132.588 18.4844C132.469 18.5096 132.363 18.563 132.272 18.6445C132.182 18.7247 132.115 18.8258 132.072 18.9476L131.899 19.4538C131.847 19.607 131.83 19.7491 131.849 19.8799C131.868 20.0112 131.92 20.125 132.004 20.2213C132.089 20.3176 132.203 20.3903 132.346 20.4394C132.442 20.472 132.534 20.4883 132.622 20.4885C132.711 20.4887 132.793 20.4716 132.867 20.4371C132.942 20.4026 133.008 20.3514 133.064 20.2835L133.84 20.6071C133.735 20.7843 133.595 20.9227 133.422 21.0225C133.25 21.1215 133.052 21.1771 132.829 21.1894C132.607 21.2009 132.369 21.163 132.113 21.0758ZM134.116 21.6919L135.174 18.5947L136.006 18.8789L135.822 19.4193L135.854 19.4304C135.976 19.2574 136.121 19.1446 136.287 19.0919C136.454 19.0378 136.624 19.0404 136.798 19.0996C136.841 19.1143 136.886 19.1328 136.934 19.1551C136.982 19.1775 137.023 19.1998 137.058 19.2221L136.797 19.9843C136.761 19.9584 136.709 19.9286 136.641 19.8949C136.573 19.8612 136.51 19.8342 136.45 19.814C136.324 19.7709 136.202 19.7599 136.083 19.781C135.967 19.8013 135.863 19.85 135.772 19.927C135.683 20.0046 135.617 20.1065 135.573 20.2329L134.975 21.9851L134.116 21.6919ZM118.513 23.7624L118.741 19.2294L119.695 19.5549L119.399 22.6577L119.434 22.6694L121.167 20.0574L121.984 20.3362L121.754 23.4684L121.791 23.4808L123.456 20.8387L124.41 21.1642L121.818 24.8906L120.967 24.6001L121.103 21.6316L121.07 21.6206L119.364 24.0529L118.513 23.7624ZM124.509 25.8767C124.191 25.7679 123.939 25.6098 123.753 25.4023C123.569 25.1938 123.455 24.9496 123.413 24.6694C123.371 24.3879 123.406 24.0838 123.517 23.7572C123.626 23.4386 123.783 23.1801 123.989 22.9816C124.195 22.7832 124.433 22.6551 124.703 22.5973C124.975 22.54 125.263 22.5632 125.567 22.6669C125.771 22.7366 125.95 22.8345 126.104 22.9605C126.259 23.0856 126.38 23.2358 126.468 23.4112C126.556 23.587 126.604 23.7864 126.61 24.0092C126.617 24.2307 126.576 24.4732 126.486 24.7367L126.405 24.9726L123.79 24.0799L123.972 23.5475L125.778 24.1642C125.82 24.0406 125.831 23.9218 125.81 23.808C125.789 23.6942 125.739 23.5942 125.662 23.5078C125.587 23.4206 125.487 23.3556 125.362 23.3129C125.232 23.2684 125.106 23.2592 124.984 23.2853C124.864 23.3105 124.759 23.3638 124.668 23.4454C124.578 23.5256 124.511 23.6266 124.468 23.7485L124.295 24.2546C124.243 24.4079 124.226 24.5499 124.244 24.6808C124.264 24.8121 124.316 24.9259 124.4 25.0222C124.484 25.1185 124.598 25.1912 124.742 25.2403C124.838 25.2728 124.93 25.2892 125.018 25.2894C125.107 25.2896 125.188 25.2724 125.263 25.2379C125.338 25.2034 125.403 25.1523 125.46 25.0844L126.236 25.408C126.131 25.5851 125.991 25.7236 125.818 25.8234C125.646 25.9224 125.448 25.978 125.225 25.9903C125.003 26.0017 124.765 25.9639 124.509 25.8767ZM126.512 26.4928L127.569 23.3955L128.428 23.6888L127.371 26.786L126.512 26.4928ZM128.137 23.1436C128.009 23.1 127.914 23.0203 127.852 22.9044C127.791 22.7876 127.781 22.6694 127.822 22.5497C127.862 22.4314 127.942 22.3453 128.061 22.2914C128.182 22.2365 128.306 22.2309 128.434 22.2745C128.562 22.3181 128.656 22.3983 128.716 22.5151C128.779 22.631 128.79 22.7481 128.75 22.8664C128.709 22.986 128.628 23.0732 128.507 23.1281C128.388 23.182 128.265 23.1872 128.137 23.1436ZM129.036 28.7232C128.758 28.6282 128.532 28.5085 128.36 28.3639C128.188 28.2212 128.065 28.0647 127.993 27.8943C127.921 27.724 127.895 27.5516 127.915 27.377L128.746 27.5413C128.749 27.6114 128.768 27.6823 128.802 27.754C128.836 27.8256 128.89 27.8923 128.966 27.9539C129.041 28.0173 129.142 28.0704 129.267 28.1131C129.454 28.1769 129.623 28.1837 129.775 28.1336C129.929 28.0853 130.041 27.9549 130.114 27.7425L130.307 27.1759L130.271 27.1635C130.204 27.2367 130.12 27.2988 130.018 27.3497C129.917 27.4006 129.799 27.4301 129.664 27.4381C129.529 27.4461 129.38 27.4221 129.216 27.3661C128.983 27.2867 128.79 27.1607 128.636 26.988C128.483 26.8144 128.389 26.5968 128.352 26.3351C128.317 26.0725 128.358 25.7698 128.475 25.427C128.595 25.0761 128.752 24.8026 128.946 24.6063C129.141 24.4101 129.353 24.2858 129.583 24.2336C129.813 24.1818 130.042 24.1947 130.27 24.2722C130.443 24.3314 130.578 24.4106 130.675 24.5096C130.772 24.6074 130.841 24.7121 130.883 24.8238C130.926 24.9346 130.953 25.0383 130.963 25.135L130.996 25.146L131.173 24.6257L132.026 24.9169L130.959 28.0444C130.869 28.3079 130.729 28.5063 130.539 28.6397C130.35 28.7731 130.125 28.8452 129.867 28.8559C129.609 28.8684 129.332 28.8242 129.036 28.7232ZM129.708 26.8138C129.847 26.8611 129.975 26.8667 130.094 26.8307C130.215 26.7939 130.323 26.7196 130.418 26.608C130.515 26.4955 130.594 26.3485 130.656 26.167C130.718 25.9856 130.746 25.8196 130.741 25.669C130.735 25.5172 130.697 25.3877 130.625 25.2808C130.554 25.1738 130.449 25.0967 130.31 25.0494C130.169 25.0012 130.037 24.9989 129.914 25.0425C129.792 25.0848 129.683 25.1646 129.587 25.2821C129.491 25.3995 129.414 25.5463 129.354 25.7224C129.292 25.9012 129.265 26.0643 129.27 26.2116C129.277 26.3581 129.316 26.4833 129.387 26.5871C129.46 26.6901 129.567 26.7656 129.708 26.8138ZM133.123 26.7501L132.512 28.5407L131.653 28.2475L133.062 24.1178L133.897 24.4028L133.358 25.9817L133.394 25.9941C133.527 25.8351 133.688 25.7305 133.88 25.6802C134.071 25.6286 134.285 25.6429 134.52 25.7232C134.735 25.7966 134.907 25.9077 135.035 26.0564C135.164 26.2042 135.244 26.3807 135.273 26.5857C135.304 26.7899 135.277 27.0127 135.193 27.2542L134.52 29.2263L133.661 28.9331L134.282 27.1142C134.348 26.9238 134.351 26.7587 134.289 26.619C134.228 26.4798 134.111 26.3804 133.936 26.3207C133.819 26.2808 133.707 26.2703 133.6 26.2893C133.494 26.3088 133.399 26.3575 133.316 26.4355C133.234 26.5126 133.17 26.6175 133.123 26.7501ZM137.901 26.9222L137.68 27.5674L135.815 26.9307L136.035 26.2855L137.901 26.9222ZM136.712 25.688L137.571 25.9812L136.585 28.8687C136.558 28.948 136.549 29.014 136.558 29.0666C136.568 29.1179 136.591 29.1596 136.628 29.1918C136.667 29.2244 136.715 29.2506 136.773 29.2703C136.813 29.2841 136.854 29.2945 136.897 29.3015C136.94 29.3072 136.973 29.3117 136.996 29.315L136.913 30.0004C136.865 29.9991 136.799 29.9939 136.716 29.9848C136.631 29.977 136.532 29.9561 136.42 29.922C136.21 29.8594 136.038 29.7699 135.903 29.6535C135.77 29.5375 135.683 29.3983 135.643 29.2359C135.602 29.0734 135.617 28.8909 135.688 28.6884L136.712 25.688Z" fill="white"/>
<path d="M168.813 59.3087C168.63 59.7477 168.39 60.0865 168.095 60.3249C167.801 60.5639 167.478 60.7049 167.124 60.748C166.772 60.7904 166.419 60.7373 166.064 60.5889C165.706 60.4394 165.419 60.2239 165.202 59.9425C164.986 59.6612 164.859 59.332 164.823 58.955C164.786 58.578 164.86 58.1706 165.043 57.7328C165.226 57.2938 165.465 56.9548 165.759 56.7158C166.053 56.4768 166.375 56.3362 166.727 56.2938C167.079 56.2502 167.435 56.3031 167.792 56.4526C168.147 56.6011 168.433 56.816 168.65 57.0973C168.868 57.378 168.996 57.7068 169.032 58.0838C169.07 58.4613 168.997 58.8696 168.813 59.3087ZM167.95 58.948C168.069 58.6636 168.127 58.406 168.123 58.1751C168.121 57.9447 168.064 57.7471 167.953 57.5821C167.842 57.4171 167.683 57.2916 167.478 57.2056C167.272 57.1196 167.071 57.095 166.876 57.1318C166.68 57.1687 166.499 57.2669 166.332 57.4266C166.167 57.5868 166.025 57.8091 165.906 58.0935C165.787 58.3779 165.729 58.6353 165.731 58.8656C165.734 59.0965 165.792 59.2945 165.903 59.4595C166.014 59.6245 166.173 59.75 166.378 59.836C166.584 59.9219 166.785 59.9465 166.98 59.9097C167.176 59.8729 167.356 59.7743 167.522 59.6141C167.689 59.4544 167.831 59.2324 167.95 58.948ZM168.603 61.5853L170.285 57.5591L171.123 57.9091L170.49 59.4229L170.516 59.4336C170.586 59.3676 170.674 59.3072 170.778 59.2524C170.885 59.1968 171.006 59.1644 171.142 59.1551C171.28 59.1451 171.434 59.1754 171.603 59.2461C171.823 59.3381 172.002 59.4807 172.14 59.6738C172.279 59.8656 172.355 60.1001 172.37 60.3773C172.386 60.6532 172.321 60.9642 172.177 61.3102C172.036 61.647 171.863 61.9087 171.657 62.0952C171.453 62.2809 171.233 62.3946 170.997 62.436C170.763 62.4768 170.532 62.4492 170.302 62.3533C170.14 62.2854 170.013 62.2008 169.921 62.0994C169.831 61.9985 169.767 61.8924 169.728 61.7811C169.691 61.6684 169.671 61.5621 169.668 61.4624L169.63 61.4468L169.428 61.9304L168.603 61.5853ZM170.053 60.4181C169.978 60.5976 169.938 60.7647 169.932 60.9192C169.926 61.0737 169.954 61.208 170.017 61.3221C170.081 61.4349 170.18 61.5196 170.315 61.576C170.452 61.633 170.583 61.6438 170.708 61.6085C170.834 61.572 170.949 61.497 171.054 61.3835C171.16 61.2694 171.25 61.1245 171.323 60.9488C171.396 60.7745 171.436 60.6111 171.443 60.4584C171.45 60.3058 171.421 60.1724 171.358 60.0583C171.295 59.9441 171.195 59.8583 171.057 59.8008C170.921 59.7438 170.79 59.7317 170.666 59.7643C170.543 59.7975 170.429 59.8699 170.324 59.9814C170.218 60.093 170.128 60.2385 170.053 60.4181ZM173.458 63.6837C173.147 63.5539 172.906 63.3792 172.735 63.1598C172.565 62.9395 172.468 62.6882 172.445 62.4058C172.421 62.1222 172.477 61.8211 172.61 61.5026C172.739 61.192 172.914 60.9446 173.132 60.7604C173.351 60.5762 173.597 60.4643 173.871 60.4247C174.146 60.3856 174.431 60.428 174.727 60.5518C174.927 60.6351 175.099 60.7447 175.243 60.8806C175.39 61.0159 175.501 61.1739 175.576 61.3547C175.653 61.536 175.687 61.7381 175.679 61.9609C175.671 62.1824 175.613 62.4215 175.506 62.6784L175.41 62.9084L172.86 61.8428L173.077 61.3238L174.838 62.06C174.889 61.9394 174.907 61.8216 174.894 61.7067C174.88 61.5917 174.838 61.4886 174.767 61.3972C174.697 61.3052 174.602 61.2337 174.48 61.1827C174.353 61.1296 174.228 61.112 174.105 61.1299C173.984 61.147 173.875 61.1932 173.779 61.2685C173.683 61.3425 173.61 61.4388 173.559 61.5575L173.353 62.051C173.29 62.2004 173.264 62.341 173.273 62.4728C173.284 62.6051 173.328 62.7221 173.406 62.8238C173.484 62.9255 173.593 63.0057 173.733 63.0643C173.826 63.1032 173.916 63.1257 174.005 63.1318C174.093 63.1379 174.176 63.1262 174.253 63.0968C174.33 63.0674 174.398 63.0207 174.459 62.9567L175.212 63.3316C175.095 63.5012 174.947 63.6301 174.767 63.718C174.589 63.8053 174.388 63.8476 174.164 63.8449C173.942 63.8415 173.707 63.7878 173.458 63.6837ZM178.829 63.3238L178.043 63.0506C178.057 62.9795 178.054 62.9088 178.032 62.8383C178.012 62.7665 177.972 62.7001 177.915 62.639C177.859 62.5772 177.783 62.5261 177.686 62.4855C177.556 62.4313 177.435 62.4131 177.323 62.4309C177.211 62.4474 177.137 62.5009 177.099 62.5913C177.069 62.6634 177.072 62.7364 177.109 62.8103C177.146 62.8842 177.228 62.9655 177.356 63.0542L177.856 63.3927C178.124 63.5757 178.303 63.7642 178.391 63.9581C178.479 64.152 178.478 64.3578 178.387 64.5753C178.304 64.7732 178.174 64.9225 177.994 65.0232C177.817 65.1244 177.609 65.1748 177.372 65.1743C177.137 65.1731 176.889 65.1177 176.627 65.0081C176.227 64.8411 175.943 64.6247 175.776 64.3592C175.61 64.0928 175.567 63.807 175.647 63.5017L176.489 63.8027C176.463 63.935 176.484 64.0532 176.553 64.1574C176.622 64.2603 176.732 64.343 176.881 64.4054C177.028 64.4668 177.157 64.4879 177.27 64.4688C177.385 64.4489 177.462 64.394 177.501 64.3041C177.531 64.2276 177.525 64.1519 177.482 64.0771C177.44 64.001 177.359 63.9225 177.239 63.8415L176.76 63.5188C176.489 63.3365 176.313 63.1426 176.229 62.9368C176.147 62.7317 176.153 62.5164 176.247 62.2909C176.329 62.097 176.451 61.9518 176.614 61.8554C176.779 61.7595 176.973 61.7135 177.196 61.7175C177.421 61.722 177.662 61.7782 177.92 61.8861C178.301 62.0455 178.568 62.2515 178.719 62.5042C178.872 62.7574 178.909 63.0306 178.829 63.3238ZM179.875 66.3656C179.564 66.2358 179.323 66.0612 179.152 65.8417C178.982 65.6214 178.885 65.3701 178.862 65.0878C178.839 64.8041 178.894 64.503 179.027 64.1845C179.157 63.8739 179.331 63.6265 179.549 63.4423C179.768 63.2581 180.014 63.1462 180.288 63.1066C180.563 63.0676 180.848 63.1099 181.145 63.2337C181.344 63.317 181.516 63.4266 181.661 63.5626C181.807 63.6978 181.918 63.8558 181.994 64.0366C182.07 64.2179 182.104 64.42 182.096 64.6428C182.088 64.8643 182.03 65.1034 181.923 65.3603L181.827 65.5903L179.277 64.5247L179.494 64.0057L181.256 64.7419C181.306 64.6213 181.324 64.5035 181.311 64.3886C181.297 64.2736 181.255 64.1705 181.184 64.0792C181.115 63.9871 181.019 63.9156 180.897 63.8646C180.77 63.8115 180.645 63.7939 180.522 63.8118C180.401 63.8289 180.292 63.8751 180.196 63.9504C180.101 64.0244 180.027 64.1207 179.976 64.2395L179.77 64.7329C179.707 64.8823 179.681 65.0229 179.691 65.1547C179.701 65.287 179.746 65.404 179.823 65.5057C179.901 65.6074 180.01 65.6876 180.15 65.7462C180.243 65.7851 180.334 65.8076 180.422 65.8137C180.51 65.8198 180.593 65.8081 180.67 65.7787C180.747 65.7493 180.816 65.7026 180.876 65.6386L181.629 66.0135C181.512 66.1831 181.364 66.312 181.184 66.4C181.006 66.4872 180.805 66.5295 180.581 66.5268C180.359 66.5234 180.124 66.4697 179.875 66.3656Z" fill="white"/>
<path d="M59.394 20.8069L61.0788 24.8322L60.3437 25.1398L57.5321 23.3393L57.5026 23.3516L58.5629 25.8851L57.7119 26.2413L56.0272 22.216L56.7741 21.9034L59.5711 23.7077L59.6065 23.6929L58.5469 21.1614L59.394 20.8069ZM63.1549 24.0325C62.8496 24.1603 62.5584 24.2059 62.2814 24.1694C62.0051 24.1311 61.7579 24.0205 61.5397 23.8377C61.321 23.6537 61.1469 23.407 61.0175 23.0978C60.887 22.7859 60.8332 22.4881 60.8561 22.2044C60.8785 21.9194 60.9733 21.6657 61.1404 21.4433C61.3083 21.2191 61.5449 21.043 61.8502 20.9153C62.1555 20.7875 62.4463 20.7428 62.7226 20.7811C62.9997 20.8176 63.2476 20.9279 63.4663 21.112C63.6844 21.2948 63.8588 21.5421 63.9893 21.854C64.1187 22.1632 64.1722 22.4603 64.1499 22.7453C64.1269 23.029 64.0315 23.283 63.8636 23.5072C63.6964 23.7296 63.4602 23.9047 63.1549 24.0325ZM62.8874 23.3823C63.0263 23.3241 63.1258 23.2363 63.1859 23.1187C63.2455 22.9999 63.2701 22.8618 63.2597 22.7044C63.2506 22.5466 63.2093 22.3798 63.1358 22.2043C63.0623 22.0287 62.9725 21.8822 62.8665 21.7649C62.7617 21.6471 62.6461 21.5677 62.5196 21.5267C62.3931 21.4857 62.2604 21.4943 62.1215 21.5524C61.9813 21.6111 61.8801 21.7004 61.8179 21.8204C61.757 21.9398 61.7311 22.0784 61.7402 22.2363C61.7506 22.3936 61.7926 22.5601 61.8661 22.7357C61.9396 22.9112 62.0287 23.058 62.1334 23.1758C62.2395 23.2931 62.3564 23.372 62.4842 23.4124C62.6128 23.451 62.7472 23.4409 62.8874 23.3823ZM65.1606 23.1238L63.897 20.1048L64.7088 19.7651L64.9292 20.2918L64.9607 20.2787C64.9373 20.0682 64.9704 19.8881 65.0601 19.7381C65.1493 19.5869 65.2784 19.4759 65.4474 19.4051C65.4893 19.3876 65.5356 19.3713 65.5863 19.3562C65.637 19.3412 65.6826 19.3306 65.7231 19.3244L66.034 20.0673C65.9898 20.072 65.931 20.0843 65.8578 20.1042C65.7845 20.124 65.719 20.1461 65.6613 20.1702C65.5382 20.2217 65.4393 20.2947 65.3649 20.389C65.2912 20.4814 65.2459 20.5866 65.229 20.7045C65.2135 20.8219 65.2315 20.9422 65.283 21.0654L65.9979 22.7734L65.1606 23.1238ZM67.4253 22.1759L66.1618 19.157L66.9597 18.823L67.1827 19.3556L67.218 19.3408C67.2069 19.1376 67.2533 18.9542 67.3573 18.7905C67.4613 18.6269 67.6155 18.5023 67.8199 18.4168C68.0269 18.3301 68.2248 18.3081 68.4136 18.3508C68.6018 18.3921 68.7569 18.4904 68.8789 18.6457L68.9103 18.6325C68.8995 18.4338 68.953 18.2489 69.0709 18.078C69.1895 17.9051 69.3595 17.7724 69.581 17.6797C69.8627 17.5618 70.1289 17.5559 70.3796 17.6619C70.6311 17.7661 70.8254 17.9819 70.9625 18.3095L71.8122 20.3398L70.9769 20.6895L70.1963 18.8242C70.1261 18.6565 70.0289 18.5494 69.9047 18.5028C69.7805 18.4562 69.6515 18.4609 69.5179 18.5168C69.3659 18.5805 69.2676 18.6786 69.223 18.8112C69.1779 18.9425 69.1882 19.0867 69.254 19.244L70.0256 21.0876L69.2139 21.4273L68.4258 19.5444C68.3638 19.3964 68.2719 19.2962 68.15 19.2441C68.0294 19.1914 67.9003 19.1939 67.7627 19.2514C67.6697 19.2904 67.5957 19.3491 67.5407 19.4275C67.4866 19.5041 67.4554 19.5933 67.4472 19.6953C67.4386 19.7959 67.4575 19.9019 67.5041 20.0133L68.2626 21.8255L67.4253 22.1759ZM73.3584 19.7597C73.1657 19.8403 72.9801 19.8788 72.8015 19.875C72.6222 19.8699 72.4611 19.8196 72.3179 19.724C72.1755 19.6266 72.0626 19.4782 71.9792 19.2791C71.909 19.1114 71.8809 18.9576 71.8947 18.8178C71.9086 18.6781 71.9541 18.5512 72.0311 18.4374C72.1082 18.3235 72.2068 18.2206 72.327 18.1288C72.4484 18.0364 72.5809 17.9517 72.7242 17.8748C72.8921 17.7829 73.0265 17.7067 73.1273 17.646C73.2277 17.584 73.2952 17.5264 73.33 17.4734C73.3648 17.4203 73.3687 17.3617 73.3418 17.2975L73.3369 17.2857C73.2848 17.1612 73.2052 17.0814 73.098 17.0461C72.9922 17.0104 72.8679 17.0224 72.7251 17.0821C72.5744 17.1452 72.4685 17.2288 72.4073 17.3329C72.3457 17.4357 72.3212 17.543 72.3341 17.6546L71.5334 17.9158C71.4959 17.7159 71.5069 17.525 71.5662 17.3431C71.625 17.1599 71.7304 16.9941 71.8824 16.8458C72.0351 16.6957 72.2321 16.5701 72.4732 16.4692C72.6409 16.399 72.8096 16.3515 72.9794 16.3267C73.1505 16.3012 73.3129 16.3049 73.4667 16.3375C73.6218 16.3696 73.7612 16.436 73.8849 16.5366C74.0081 16.636 74.1073 16.7754 74.1824 16.9549L75.0346 18.9912L74.2406 19.3235L74.0654 18.9049L74.0418 18.9147C74.0328 19.0294 74.0028 19.1397 73.9517 19.2458C73.9001 19.3505 73.8257 19.4471 73.7287 19.5354C73.6312 19.6224 73.5077 19.6972 73.3584 19.7597ZM73.3563 19.0815C73.4795 19.03 73.5781 18.9602 73.6521 18.8722C73.7256 18.783 73.7717 18.6852 73.7903 18.5788C73.809 18.4725 73.7961 18.3662 73.7516 18.2601L73.6175 17.9397C73.5985 17.9677 73.569 17.9985 73.5292 18.0321C73.4901 18.0639 73.4449 18.0974 73.3935 18.1328C73.3415 18.1669 73.2893 18.2003 73.2368 18.233C73.1837 18.2645 73.1356 18.2931 73.0925 18.3188C73.0003 18.3744 72.9241 18.4332 72.8638 18.4954C72.8036 18.5575 72.7644 18.624 72.7463 18.6947C72.7276 18.7641 72.7347 18.8381 72.7676 18.9168C72.8154 19.0308 72.8931 19.1006 73.0009 19.1263C73.1094 19.1502 73.2279 19.1353 73.3563 19.0815ZM74.8368 14.3436L76.5215 18.3689L75.6842 18.7193L73.9995 14.694L74.8368 14.3436Z" fill="white"/>
<path d="M93 0.569291L94 0.5H96.5L99 0.569291V27H96L93 27.0822V0.569291Z" fill="#640D5F"/>
</svg>
